RBDS020runT35_grf
version=1
nRows=34
nColumns=19
inDegrees=no
endheader
time	ground_force_r_vx	ground_force_r_vy	ground_force_r_vz	ground_force_r_px	ground_force_r_py	ground_force_r_pz	ground_force_r_mx	ground_force_r_my	ground_force_r_mz	ground_force_l_vx	ground_force_l_vy	ground_force_l_vz	ground_force_l_px	ground_force_l_py	ground_force_l_pz	ground_force_l_mx	ground_force_l_my	ground_force_l_mz
      0.00000000	      0.00000000	      0.00000000	      0.00000000	      0.00000000	      0.00000000	      0.00000000	      0.00000000	      0.00000000	      0.00000000	   -104.13313200	   1113.24146667	    -15.39260490	      2.39060790	      0.00000000	      0.93887225	      0.00000000	      5.88761193	      0.00000000
      0.00100000	      0.00000000	      0.00000000	      0.00000000	      0.00000000	      0.00000000	      0.00000000	      0.00000000	      0.00000000	      0.00000000	   -108.64245814	   1121.88417764	    -11.79738821	      2.38911266	      0.00000000	      0.93863711	      0.00000000	      6.12841627	      0.00000000
      0.00200000	      0.00000000	      0.00000000	      0.00000000	      0.00000000	      0.00000000	      0.00000000	      0.00000000	      0.00000000	      0.00000000	   -113.15178429	   1130.52688861	     -8.20217152	      2.38761742	      0.00000000	      0.93840197	     -0.00000000	      6.36922060	      0.00000000
      0.00300000	      0.00000000	      0.00000000	      0.00000000	      0.00000000	      0.00000000	      0.00000000	      0.00000000	      0.00000000	      0.00000000	   -117.66111043	   1139.16959959	     -4.60695482	      2.38612218	      0.00000000	      0.93816683	     -0.00000000	      6.61002493	     -0.00000000
      0.00400000	      0.00000000	      0.00000000	      0.00000000	      0.00000000	      0.00000000	      0.00000000	      0.00000000	      0.00000000	      0.00000000	   -122.09247957	   1147.89638962	     -1.03784060	      2.38461781	      0.00000000	      0.93793203	     -0.00000000	      6.85465711	     -0.00000000
      0.00500000	      0.00000000	      0.00000000	      0.00000000	      0.00000000	      0.00000000	      0.00000000	      0.00000000	      0.00000000	      0.00000000	   -126.48487020	   1156.66521918	      2.51822238	      2.38310888	      0.00000000	      0.93769740	     -0.00000000	      7.10120321	     -0.00000000
      0.00600000	      0.00000000	      0.00000000	      0.00000000	      0.00000000	      0.00000000	      0.00000000	      0.00000000	      0.00000000	      0.00000000	   -130.87726083	   1165.43404874	      6.07428536	      2.38159995	      0.00000000	      0.93746277	     -0.00000000	      7.34774931	     -0.00000000
      0.00700000	      0.00000000	      0.00000000	      0.00000000	      0.00000000	      0.00000000	      0.00000000	      0.00000000	      0.00000000	      0.00000000	   -135.18409020	   1174.24873920	      9.60186234	      2.38008055	      0.00000000	      0.93722881	     -0.00000000	      7.59487607	     -0.00000000
      0.00800000	      0.00000000	      0.00000000	      0.00000000	      0.00000000	      0.00000000	      0.00000000	      0.00000000	      0.00000000	      0.00000000	   -139.31979704	   1183.15515146	     13.07246732	      2.37854022	      0.00000000	      0.93699619	     -0.00000000	      7.84316418	     -0.00000000
      0.00900000	      0.00000000	      0.00000000	      0.00000000	      0.00000000	      0.00000000	      0.00000000	      0.00000000	      0.00000000	      0.00000000	   -143.45550388	   1192.06156372	     16.54307230	      2.37699988	      0.00000000	      0.93676357	     -0.00000000	      8.09145229	     -0.00000000
      0.01000000	      0.00000000	      0.00000000	      0.00000000	      0.00000000	      0.00000000	      0.00000000	      0.00000000	      0.00000000	      0.00000000	   -147.59121072	   1200.96797598	     20.01367728	      2.37545955	      0.00000000	      0.93653095	     -0.00000000	      8.33974040	     -0.00000000
      0.01100000	      0.00000000	      0.00000000	      0.00000000	      0.00000000	      0.00000000	      0.00000000	      0.00000000	      0.00000000	      0.00000000	   -151.33778754	   1210.01006921	     23.35467622	      2.37387016	      0.00000000	      0.93630178	     -0.00000000	      8.58584618	     -0.00000000
      0.01200000	      0.00000000	      0.00000000	      0.00000000	      0.00000000	      0.00000000	      0.00000000	      0.00000000	      0.00000000	      0.00000000	   -155.08436435	   1219.05216244	     26.69567516	      2.37228077	      0.00000000	      0.93607261	     -0.00000000	      8.83195197	     -0.00000000
      0.01300000	      0.00000000	      0.00000000	      0.00000000	      0.00000000	      0.00000000	      0.00000000	      0.00000000	      0.00000000	      0.00000000	   -158.83094117	   1228.09425568	     30.03667410	      2.37069137	      0.00000000	      0.93584343	     -0.00000000	      9.07805776	     -0.00000000
      0.01400000	      0.00000000	      0.00000000	      0.00000000	      0.00000000	      0.00000000	      0.00000000	      0.00000000	      0.00000000	      0.00000000	   -162.23787690	   1237.21400805	     33.26401154	      2.36905811	      0.00000000	      0.93561747	     -0.00000000	      9.32018091	     -0.00000000
      0.01500000	      0.00000000	      0.00000000	      0.00000000	      0.00000000	      0.00000000	      0.00000000	      0.00000000	      0.00000000	      0.00000000	   -165.47499209	   1246.37259000	     36.43451822	      2.36740291	      0.00000000	      0.93539312	     -0.00000000	      9.56031275	     -0.00000000
      0.01600000	      0.00000000	      0.00000000	      0.00000000	      0.00000000	      0.00000000	      0.00000000	      0.00000000	      0.00000000	      0.00000000	   -168.71210729	   1255.53117195	     39.60502491	      2.36574771	      0.00000000	      0.93516876	     -0.00000000	      9.80044458	     -0.00000000
      0.01700000	      0.00000000	      0.00000000	      0.00000000	      0.00000000	      0.00000000	      0.00000000	      0.00000000	      0.00000000	      0.00000000	   -171.74469689	   1264.71551785	     42.70649392	      2.36406556	      0.00000000	      0.93494645	     -0.00000000	     10.03738957	     -0.00000000
      0.01800000	      0.00000000	      0.00000000	      0.00000000	      0.00000000	      0.00000000	      0.00000000	      0.00000000	      0.00000000	      0.00000000	   -174.36823531	   1273.95139165	     45.66988758	      2.36232952	      0.00000000	      0.93472820	     -0.00000000	     10.26796086	     -0.00000000
      0.01900000	      0.00000000	      0.00000000	      0.00000000	      0.00000000	      0.00000000	      0.00000000	      0.00000000	      0.00000000	      0.00000000	   -176.99177374	   1283.18726545	     48.63328125	      2.36059348	      0.00000000	      0.93450995	     -0.00000000	     10.49853215	     -0.00000000
      0.02000000	      0.00000000	      0.00000000	      0.00000000	      0.00000000	      0.00000000	      0.00000000	      0.00000000	      0.00000000	      0.00000000	   -179.61531216	   1292.42313925	     51.59667491	      2.35885744	      0.00000000	      0.93429170	     -0.00000000	     10.72910344	     -0.00000000
      0.02100000	      0.00000000	      0.00000000	      0.00000000	      0.00000000	      0.00000000	      0.00000000	      0.00000000	      0.00000000	      0.00000000	   -181.54058428	   1301.67580909	     54.32145725	      2.35702786	      0.00000000	      0.93408074	     -0.00000000	     10.94681813	     -0.00000000
      0.02200000	      0.00000000	      0.00000000	      0.00000000	      0.00000000	      0.00000000	      0.00000000	      0.00000000	      0.00000000	      0.00000000	   -183.46585640	   1310.92847892	     57.04623959	      2.35519829	      0.00000000	      0.93386979	     -0.00000000	     11.16453282	     -0.00000000
      0.02300000	      0.00000000	      0.00000000	      0.00000000	      0.00000000	      0.00000000	      0.00000000	      0.00000000	      0.00000000	      0.00000000	   -185.39112853	   1320.18114876	     59.77102193	      2.35336871	      0.00000000	      0.93365884	     -0.00000000	     11.38224751	     -0.00000000
      0.02400000	      0.00000000	      0.00000000	      0.00000000	      0.00000000	      0.00000000	      0.00000000	      0.00000000	      0.00000000	      0.00000000	   -186.80884604	   1329.39062304	     62.31959183	      2.35147021	      0.00000000	      0.93345347	     -0.00000000	     11.58944937	     -0.00000000
      0.02500000	      0.00000000	      0.00000000	      0.00000000	      0.00000000	      0.00000000	      0.00000000	      0.00000000	      0.00000000	      0.00000000	   -187.97278626	   1338.57849954	     64.78005550	      2.34953725	      0.00000000	      0.93325089	     -0.00000000	     11.79139482	     -0.00000000
      0.02600000	      0.00000000	      0.00000000	      0.00000000	      0.00000000	      0.00000000	      0.00000000	      0.00000000	      0.00000000	      0.00000000	   -189.13672647	   1347.76637605	     67.24051918	      2.34760430	      0.00000000	      0.93304832	     -0.00000000	     11.99334027	     -0.00000000
      0.02700000	      0.00000000	      0.00000000	      0.00000000	      0.00000000	      0.00000000	      0.00000000	      0.00000000	      0.00000000	      0.00000000	   -190.03345430	   1356.89898054	     69.60638634	      2.34563464	      0.00000000	      0.93284886	     -0.00000000	     12.18921674	     -0.00000000
      0.02800000	      0.00000000	      0.00000000	      0.00000000	      0.00000000	      0.00000000	      0.00000000	      0.00000000	      0.00000000	      0.00000000	   -190.39575737	   1365.92104102	     71.78306048	      2.34359159	      0.00000000	      0.93265562	     -0.00000000	     12.37295523	     -0.00000000
      0.02900000	      0.00000000	      0.00000000	      0.00000000	      0.00000000	      0.00000000	      0.00000000	      0.00000000	      0.00000000	      0.00000000	   -190.75806045	   1374.94310150	     73.95973461	      2.34154854	      0.00000000	      0.93246239	     -0.00000000	     12.55669372	     -0.00000000
      0.03000000	      0.00000000	      0.00000000	      0.00000000	      0.00000000	      0.00000000	      0.00000000	      0.00000000	      0.00000000	      0.00000000	   -191.12036352	   1383.96516198	     76.13640874	      2.33950549	      0.00000000	      0.93226915	     -0.00000000	     12.74043221	     -0.00000000
      0.03100000	      0.00000000	      0.00000000	      0.00000000	      0.00000000	      0.00000000	      0.00000000	      0.00000000	      0.00000000	      0.00000000	   -190.66357480	   1392.70390854	     78.01625712	      2.33734894	      0.00000000	      0.93208610	     -0.00000000	     12.90408095	     -0.00000000
      0.03200000	      0.00000000	      0.00000000	      0.00000000	      0.00000000	      0.00000000	      0.00000000	      0.00000000	      0.00000000	      0.00000000	   -190.20678609	   1401.44265509	     79.89610550	      2.33519238	      0.00000000	      0.93190304	     -0.00000000	     13.06772968	     -0.00000000
      0.03300000	      0.00000000	      0.00000000	      0.00000000	      0.00000000	      0.00000000	      0.00000000	      0.00000000	      0.00000000	      0.00000000	   -189.74999737	   1410.18140165	     81.77595388	      2.33303582	      0.00000000	      0.93171999	     -0.00000000	     13.23137842	     -0.00000000
